<svg height="2558" width="720" xmlns="http://www.w3.org/2000/svg">
<rect height="2558" fill="#555" width="720"></rect>
<text fill="#7f7" font-family="Courier New" font-size="12" xml:space="preserve">
<tspan x="10" y="26">134 megabytes installed</tspan>
<tspan x="10" y="42"></tspan>
<tspan x="10" y="58">node_modules</tspan>
<tspan x="10" y="74">└─┬ node-chrome@1.2.3 </tspan>
<tspan x="10" y="90">  └─┬ electron@1.6.6 </tspan>
<tspan x="10" y="106">    ├─┬ electron-download@3.3.0 </tspan>
<tspan x="10" y="122">    │ ├─┬ debug@2.6.4 </tspan>
<tspan x="10" y="138">    │ │ └── ms@0.7.3 </tspan>
<tspan x="10" y="154">    │ ├─┬ fs-extra@0.30.0 </tspan>
<tspan x="10" y="170">    │ │ ├── graceful-fs@4.1.11 </tspan>
<tspan x="10" y="186">    │ │ ├── jsonfile@2.4.0 </tspan>
<tspan x="10" y="202">    │ │ ├── klaw@1.3.1 </tspan>
<tspan x="10" y="218">    │ │ ├── path-is-absolute@1.0.1 </tspan>
<tspan x="10" y="234">    │ │ └─┬ rimraf@2.6.1 </tspan>
<tspan x="10" y="250">    │ │   └─┬ glob@7.1.1 </tspan>
<tspan x="10" y="266">    │ │     ├── fs.realpath@1.0.0 </tspan>
<tspan x="10" y="282">    │ │     ├─┬ inflight@1.0.6 </tspan>
<tspan x="10" y="298">    │ │     │ └── wrappy@1.0.2 </tspan>
<tspan x="10" y="314">    │ │     ├─┬ minimatch@3.0.3 </tspan>
<tspan x="10" y="330">    │ │     │ └─┬ brace-expansion@1.1.7 </tspan>
<tspan x="10" y="346">    │ │     │   ├── balanced-match@0.4.2 </tspan>
<tspan x="10" y="362">    │ │     │   └── concat-map@0.0.1 </tspan>
<tspan x="10" y="378">    │ │     └── once@1.4.0 </tspan>
<tspan x="10" y="394">    │ ├── home-path@1.0.5 </tspan>
<tspan x="10" y="410">    │ ├── minimist@1.2.0 </tspan>
<tspan x="10" y="426">    │ ├─┬ nugget@2.0.1 </tspan>
<tspan x="10" y="442">    │ │ ├─┬ pretty-bytes@1.0.4 </tspan>
<tspan x="10" y="458">    │ │ │ ├── get-stdin@4.0.1 </tspan>
<tspan x="10" y="474">    │ │ │ └─┬ meow@3.7.0 </tspan>
<tspan x="10" y="490">    │ │ │   ├─┬ camelcase-keys@2.1.0 </tspan>
<tspan x="10" y="506">    │ │ │   │ └── camelcase@2.1.1 </tspan>
<tspan x="10" y="522">    │ │ │   ├── decamelize@1.2.0 </tspan>
<tspan x="10" y="538">    │ │ │   ├─┬ loud-rejection@1.6.0 </tspan>
<tspan x="10" y="554">    │ │ │   │ ├─┬ currently-unhandled@0.4.1 </tspan>
<tspan x="10" y="570">    │ │ │   │ │ └── array-find-index@1.0.2 </tspan>
<tspan x="10" y="586">    │ │ │   │ └── signal-exit@3.0.2 </tspan>
<tspan x="10" y="602">    │ │ │   ├── map-obj@1.0.1 </tspan>
<tspan x="10" y="618">    │ │ │   ├─┬ normalize-package-data@2.3.8 </tspan>
<tspan x="10" y="634">    │ │ │   │ ├── hosted-git-info@2.4.2 </tspan>
<tspan x="10" y="650">    │ │ │   │ ├─┬ is-builtin-module@1.0.0 </tspan>
<tspan x="10" y="666">    │ │ │   │ │ └── builtin-modules@1.1.1 </tspan>
<tspan x="10" y="682">    │ │ │   │ └─┬ validate-npm-package-license@3.0.1 </tspan>
<tspan x="10" y="698">    │ │ │   │   ├─┬ spdx-correct@1.0.2 </tspan>
<tspan x="10" y="714">    │ │ │   │   │ └── spdx-license-ids@1.2.2 </tspan>
<tspan x="10" y="730">    │ │ │   │   └── spdx-expression-parse@1.0.4 </tspan>
<tspan x="10" y="746">    │ │ │   ├── object-assign@4.1.1 </tspan>
<tspan x="10" y="762">    │ │ │   ├─┬ read-pkg-up@1.0.1 </tspan>
<tspan x="10" y="778">    │ │ │   │ ├── find-up@1.1.2 </tspan>
<tspan x="10" y="794">    │ │ │   │ └─┬ read-pkg@1.1.0 </tspan>
<tspan x="10" y="810">    │ │ │   │   ├─┬ load-json-file@1.1.0 </tspan>
<tspan x="10" y="826">    │ │ │   │   │ ├─┬ parse-json@2.2.0 </tspan>
<tspan x="10" y="842">    │ │ │   │   │ │ └─┬ error-ex@1.3.1 </tspan>
<tspan x="10" y="858">    │ │ │   │   │ │   └── is-arrayish@0.2.1 </tspan>
<tspan x="10" y="874">    │ │ │   │   │ ├── pify@2.3.0 </tspan>
<tspan x="10" y="890">    │ │ │   │   │ └─┬ strip-bom@2.0.0 </tspan>
<tspan x="10" y="906">    │ │ │   │   │   └── is-utf8@0.2.1 </tspan>
<tspan x="10" y="922">    │ │ │   │   └── path-type@1.1.0 </tspan>
<tspan x="10" y="938">    │ │ │   ├─┬ redent@1.0.0 </tspan>
<tspan x="10" y="954">    │ │ │   │ ├─┬ indent-string@2.1.0 </tspan>
<tspan x="10" y="970">    │ │ │   │ │ └─┬ repeating@2.0.1 </tspan>
<tspan x="10" y="986">    │ │ │   │ │   └── is-finite@1.0.2 </tspan>
<tspan x="10" y="1002">    │ │ │   │ └── strip-indent@1.0.1 </tspan>
<tspan x="10" y="1018">    │ │ │   └── trim-newlines@1.0.0 </tspan>
<tspan x="10" y="1034">    │ │ ├─┬ progress-stream@1.2.0 </tspan>
<tspan x="10" y="1050">    │ │ │ ├── speedometer@0.1.4 </tspan>
<tspan x="10" y="1066">    │ │ │ └─┬ through2@0.2.3 </tspan>
<tspan x="10" y="1082">    │ │ │   ├─┬ readable-stream@1.1.14 </tspan>
<tspan x="10" y="1098">    │ │ │   │ └── isarray@0.0.1 </tspan>
<tspan x="10" y="1114">    │ │ │   └─┬ xtend@2.1.2 </tspan>
<tspan x="10" y="1130">    │ │ │     └── object-keys@0.4.0 </tspan>
<tspan x="10" y="1146">    │ │ ├─┬ request@2.81.0 </tspan>
<tspan x="10" y="1162">    │ │ │ ├── aws-sign2@0.6.0 </tspan>
<tspan x="10" y="1178">    │ │ │ ├── aws4@1.6.0 </tspan>
<tspan x="10" y="1194">    │ │ │ ├── caseless@0.12.0 </tspan>
<tspan x="10" y="1210">    │ │ │ ├─┬ combined-stream@1.0.5 </tspan>
<tspan x="10" y="1226">    │ │ │ │ └── delayed-stream@1.0.0 </tspan>
<tspan x="10" y="1242">    │ │ │ ├── extend@3.0.0 </tspan>
<tspan x="10" y="1258">    │ │ │ ├── forever-agent@0.6.1 </tspan>
<tspan x="10" y="1274">    │ │ │ ├─┬ form-data@2.1.4 </tspan>
<tspan x="10" y="1290">    │ │ │ │ └── asynckit@0.4.0 </tspan>
<tspan x="10" y="1306">    │ │ │ ├─┬ har-validator@4.2.1 </tspan>
<tspan x="10" y="1322">    │ │ │ │ ├─┬ ajv@4.11.7 </tspan>
<tspan x="10" y="1338">    │ │ │ │ │ ├── co@4.6.0 </tspan>
<tspan x="10" y="1354">    │ │ │ │ │ └─┬ json-stable-stringify@1.0.1 </tspan>
<tspan x="10" y="1370">    │ │ │ │ │   └── jsonify@0.0.0 </tspan>
<tspan x="10" y="1386">    │ │ │ │ └── har-schema@1.0.5 </tspan>
<tspan x="10" y="1402">    │ │ │ ├─┬ hawk@3.1.3 </tspan>
<tspan x="10" y="1418">    │ │ │ │ ├── boom@2.10.1 </tspan>
<tspan x="10" y="1434">    │ │ │ │ ├── cryptiles@2.0.5 </tspan>
<tspan x="10" y="1450">    │ │ │ │ ├── hoek@2.16.3 </tspan>
<tspan x="10" y="1466">    │ │ │ │ └── sntp@1.0.9 </tspan>
<tspan x="10" y="1482">    │ │ │ ├─┬ http-signature@1.1.1 </tspan>
<tspan x="10" y="1498">    │ │ │ │ ├── assert-plus@0.2.0 </tspan>
<tspan x="10" y="1514">    │ │ │ │ ├─┬ jsprim@1.4.0 </tspan>
<tspan x="10" y="1530">    │ │ │ │ │ ├── assert-plus@1.0.0 </tspan>
<tspan x="10" y="1546">    │ │ │ │ │ ├── extsprintf@1.0.2 </tspan>
<tspan x="10" y="1562">    │ │ │ │ │ ├── json-schema@0.2.3 </tspan>
<tspan x="10" y="1578">    │ │ │ │ │ └── verror@1.3.6 </tspan>
<tspan x="10" y="1594">    │ │ │ │ └─┬ sshpk@1.13.0 </tspan>
<tspan x="10" y="1610">    │ │ │ │   ├── asn1@0.2.3 </tspan>
<tspan x="10" y="1626">    │ │ │ │   ├── assert-plus@1.0.0 </tspan>
<tspan x="10" y="1642">    │ │ │ │   ├── bcrypt-pbkdf@1.0.1 </tspan>
<tspan x="10" y="1658">    │ │ │ │   ├─┬ dashdash@1.14.1 </tspan>
<tspan x="10" y="1674">    │ │ │ │   │ └── assert-plus@1.0.0 </tspan>
<tspan x="10" y="1690">    │ │ │ │   ├── ecc-jsbn@0.1.1 </tspan>
<tspan x="10" y="1706">    │ │ │ │   ├─┬ getpass@0.1.6 </tspan>
<tspan x="10" y="1722">    │ │ │ │   │ └── assert-plus@1.0.0 </tspan>
<tspan x="10" y="1738">    │ │ │ │   ├── jodid25519@1.0.2 </tspan>
<tspan x="10" y="1754">    │ │ │ │   ├── jsbn@0.1.1 </tspan>
<tspan x="10" y="1770">    │ │ │ │   └── tweetnacl@0.14.5 </tspan>
<tspan x="10" y="1786">    │ │ │ ├── is-typedarray@1.0.0 </tspan>
<tspan x="10" y="1802">    │ │ │ ├── isstream@0.1.2 </tspan>
<tspan x="10" y="1818">    │ │ │ ├── json-stringify-safe@5.0.1 </tspan>
<tspan x="10" y="1834">    │ │ │ ├─┬ mime-types@2.1.15 </tspan>
<tspan x="10" y="1850">    │ │ │ │ └── mime-db@1.27.0 </tspan>
<tspan x="10" y="1866">    │ │ │ ├── oauth-sign@0.8.2 </tspan>
<tspan x="10" y="1882">    │ │ │ ├── performance-now@0.2.0 </tspan>
<tspan x="10" y="1898">    │ │ │ ├── qs@6.4.0 </tspan>
<tspan x="10" y="1914">    │ │ │ ├── safe-buffer@5.0.1 </tspan>
<tspan x="10" y="1930">    │ │ │ ├── stringstream@0.0.5 </tspan>
<tspan x="10" y="1946">    │ │ │ ├─┬ tough-cookie@2.3.2 </tspan>
<tspan x="10" y="1962">    │ │ │ │ └── punycode@1.4.1 </tspan>
<tspan x="10" y="1978">    │ │ │ ├── tunnel-agent@0.6.0 </tspan>
<tspan x="10" y="1994">    │ │ │ └── uuid@3.0.1 </tspan>
<tspan x="10" y="2010">    │ │ ├─┬ single-line-log@1.1.2 </tspan>
<tspan x="10" y="2026">    │ │ │ └─┬ string-width@1.0.2 </tspan>
<tspan x="10" y="2042">    │ │ │   ├── code-point-at@1.1.0 </tspan>
<tspan x="10" y="2058">    │ │ │   ├─┬ is-fullwidth-code-point@1.0.0 </tspan>
<tspan x="10" y="2074">    │ │ │   │ └── number-is-nan@1.0.1 </tspan>
<tspan x="10" y="2090">    │ │ │   └─┬ strip-ansi@3.0.1 </tspan>
<tspan x="10" y="2106">    │ │ │     └── ansi-regex@2.1.1 </tspan>
<tspan x="10" y="2122">    │ │ └── throttleit@0.0.2 </tspan>
<tspan x="10" y="2138">    │ ├─┬ path-exists@2.1.0 </tspan>
<tspan x="10" y="2154">    │ │ └─┬ pinkie-promise@2.0.1 </tspan>
<tspan x="10" y="2170">    │ │   └── pinkie@2.0.4 </tspan>
<tspan x="10" y="2186">    │ ├─┬ rc@1.2.1 </tspan>
<tspan x="10" y="2202">    │ │ ├── deep-extend@0.4.1 </tspan>
<tspan x="10" y="2218">    │ │ ├── ini@1.3.4 </tspan>
<tspan x="10" y="2234">    │ │ └── strip-json-comments@2.0.1 </tspan>
<tspan x="10" y="2250">    │ ├── semver@5.3.0 </tspan>
<tspan x="10" y="2266">    │ └─┬ sumchecker@1.3.1 </tspan>
<tspan x="10" y="2282">    │   └── es6-promise@4.1.0 </tspan>
<tspan x="10" y="2298">    └─┬ extract-zip@1.6.0 </tspan>
<tspan x="10" y="2314">      ├─┬ concat-stream@1.5.0 </tspan>
<tspan x="10" y="2330">      │ ├── inherits@2.0.3 </tspan>
<tspan x="10" y="2346">      │ ├─┬ readable-stream@2.0.6 </tspan>
<tspan x="10" y="2362">      │ │ ├── core-util-is@1.0.2 </tspan>
<tspan x="10" y="2378">      │ │ ├── isarray@1.0.0 </tspan>
<tspan x="10" y="2394">      │ │ ├── process-nextick-args@1.0.7 </tspan>
<tspan x="10" y="2410">      │ │ ├── string_decoder@0.10.31 </tspan>
<tspan x="10" y="2426">      │ │ └── util-deprecate@1.0.2 </tspan>
<tspan x="10" y="2442">      │ └── typedarray@0.0.6 </tspan>
<tspan x="10" y="2458">      ├── debug@0.7.4 </tspan>
<tspan x="10" y="2474">      ├─┬ mkdirp@0.5.0 </tspan>
<tspan x="10" y="2490">      │ └── minimist@0.0.8 </tspan>
<tspan x="10" y="2506">      └─┬ yauzl@2.4.1 </tspan>
<tspan x="10" y="2522">        └─┬ fd-slicer@1.0.1 </tspan>
<tspan x="10" y="2538">          └── pend@1.2.0</tspan>
</text>
</svg>
